<svg version="1.1" width="11.69in" height="17.53in" viewBox="0 0 3507 5260" stroke="#000" fill="none" xmlns="http://www.w3.org/2000/svg" xmlns:xlink="http://www.w3.org/1999/xlink" >
<circle cx="1629" cy="1264" r="269" stroke="rgb(0, 0 ,0 )" stroke-opacity="1.00000" stroke-width="7" />
<polyline points="1661,996 1661,1531 " stroke="rgb(0, 0 ,0 )" stroke-opacity="1.00000" stroke-width="7" />
<polyline points="1597,996 1597,1531 " stroke="rgb(0, 0 ,0 )" stroke-opacity="1.00000" stroke-width="7" />
<polyline points="1281,1264 1389,1264 " stroke="rgb(0, 0 ,0 )" stroke-opacity="1.00000" stroke-width="4" />
<circle cx="1413" cy="1264" r="1" stroke="rgb(0, 0 ,0 )" stroke-opacity="1.00000" stroke-width="4" />
<polyline points="1437,1264 1533,1264 " stroke="rgb(0, 0 ,0 )" stroke-opacity="1.00000" stroke-width="4" />
<circle cx="1557" cy="1264" r="1" stroke="rgb(0, 0 ,0 )" stroke-opacity="1.00000" stroke-width="4" />
<polyline points="1581,1264 1677,1264 " stroke="rgb(0, 0 ,0 )" stroke-opacity="1.00000" stroke-width="4" />
<circle cx="1701" cy="1264" r="1" stroke="rgb(0, 0 ,0 )" stroke-opacity="1.00000" stroke-width="4" />
<polyline points="1725,1264 1822,1264 " stroke="rgb(0, 0 ,0 )" stroke-opacity="1.00000" stroke-width="4" />
<circle cx="1846" cy="1264" r="1" stroke="rgb(0, 0 ,0 )" stroke-opacity="1.00000" stroke-width="4" />
<polyline points="1870,1264 1977,1264 " stroke="rgb(0, 0 ,0 )" stroke-opacity="1.00000" stroke-width="4" />
<polyline points="1629,918 1629,1061 " stroke="rgb(0, 0 ,0 )" stroke-opacity="1.00000" stroke-width="4" />
<circle cx="1629" cy="1090" r="1" stroke="rgb(0, 0 ,0 )" stroke-opacity="1.00000" stroke-width="4" />
<polyline points="1629,1119 1629,1235 " stroke="rgb(0, 0 ,0 )" stroke-opacity="1.00000" stroke-width="4" />
<circle cx="1629" cy="1264" r="1" stroke="rgb(0, 0 ,0 )" stroke-opacity="1.00000" stroke-width="4" />
<polyline points="1629,1292 1629,1408 " stroke="rgb(0, 0 ,0 )" stroke-opacity="1.00000" stroke-width="4" />
<circle cx="1629" cy="1437" r="1" stroke="rgb(0, 0 ,0 )" stroke-opacity="1.00000" stroke-width="4" />
<polyline points="1629,1466 1629,1609 " stroke="rgb(0, 0 ,0 )" stroke-opacity="1.00000" stroke-width="4" />
<polyline points="1589,2059 1589,2126 " stroke="rgb(0, 0 ,0 )" stroke-opacity="1.00000" stroke-width="7" />
<polyline points="1653,2059 1653,2126 " stroke="rgb(0, 0 ,0 )" stroke-opacity="1.00000" stroke-width="7" />
<path d="M1805,2059  A61,61 -8 0,1 1866,2112 " stroke="rgb(0, 0 ,0 )" stroke-opacity="1.00000" stroke-width="7" stroke-opcacity="1" />
<polyline points="1877,2181 1866,2112 " stroke="rgb(0, 0 ,0 )" stroke-opacity="1.00000" stroke-width="7" />
<path d="M1877,2181  A15,15 -274 0,1 1862,2199 " stroke="rgb(0, 0 ,0 )" stroke-opacity="1.00000" stroke-width="7" stroke-opcacity="1" />
<polyline points="1740,2199 1862,2199 " stroke="rgb(0, 0 ,0 )" stroke-opacity="1.00000" stroke-width="7" />
<path d="M1723,2217  A17,17 -90 0,1 1740,2199 " stroke="rgb(0, 0 ,0 )" stroke-opacity="1.00000" stroke-width="7" stroke-opcacity="1" />
<polyline points="1653,2059 1805,2059 " stroke="rgb(0, 0 ,0 )" stroke-opacity="1.00000" stroke-width="7" />
<polyline points="1368,2149 1368,1935 " stroke="rgb(0, 0 ,0 )" stroke-opacity="1.00000" stroke-width="4" />
<polyline points="1874,2154 1874,1935 " stroke="rgb(0, 0 ,0 )" stroke-opacity="1.00000" stroke-width="4" />
<polyline points="1408,1955 1834,1955 " stroke="rgb(0, 0 ,0 )" stroke-opacity="1.00000" stroke-width="4" />
<path d="M1408,1948 V1961 L1368,1955 L1408,1948 " fill="rgb(0, 0 ,0 )" stroke="rgb(0, 0 ,0 )" stroke-opacity="1.00000" />
<path d="M1834,1961 V1948 L1874,1955 L1834,1961 " fill="rgb(0, 0 ,0 )" stroke="rgb(0, 0 ,0 )" stroke-opacity="1.00000" />
<polyline points="1821,2059 2056,2059 " stroke="rgb(0, 0 ,0 )" stroke-opacity="1.00000" stroke-width="4" />
<polyline points="1878,2199 2056,2199 " stroke="rgb(0, 0 ,0 )" stroke-opacity="1.00000" stroke-width="4" />
<polyline points="2036,2099 2036,2159 " stroke="rgb(0, 0 ,0 )" stroke-opacity="1.00000" stroke-width="4" />
<path d="M2042,2099 H2029 L2036,2059 L2042,2099 " fill="rgb(0, 0 ,0 )" stroke="rgb(0, 0 ,0 )" stroke-opacity="1.00000" />
<path d="M2029,2159 H2042 L2036,2199 L2029,2159 " fill="rgb(0, 0 ,0 )" stroke="rgb(0, 0 ,0 )" stroke-opacity="1.00000" />
<path d="M1380,2199  A15,15 -171 0,1 1365,2181 " stroke="rgb(0, 0 ,0 )" stroke-opacity="1.00000" stroke-width="7" stroke-opcacity="1" />
<polyline points="1589,2059 1437,2059 " stroke="rgb(0, 0 ,0 )" stroke-opacity="1.00000" stroke-width="7" />
<polyline points="1589,2126 1653,2126 " stroke="rgb(0, 0 ,0 )" stroke-opacity="1.00000" stroke-width="7" />
<path d="M1376,2112  A61,61 -90 0,1 1437,2059 " stroke="rgb(0, 0 ,0 )" stroke-opacity="1.00000" stroke-width="7" stroke-opcacity="1" />
<polyline points="1365,2181 1376,2112 " stroke="rgb(0, 0 ,0 )" stroke-opacity="1.00000" stroke-width="7" />
<polyline points="1723,2217 1723,2307 " stroke="rgb(0, 0 ,0 )" stroke-opacity="1.00000" stroke-width="7" />
<polyline points="1519,2261 1485,2284 " stroke="rgb(0, 0 ,0 )" stroke-opacity="1.00000" stroke-width="7" />
<polyline points="1485,2284 1519,2307 " stroke="rgb(0, 0 ,0 )" stroke-opacity="1.00000" stroke-width="7" />
<polyline points="1519,2217 1519,2261 " stroke="rgb(0, 0 ,0 )" stroke-opacity="1.00000" stroke-width="7" />
<polyline points="1519,2307 1519,2358 " stroke="rgb(0, 0 ,0 )" stroke-opacity="1.00000" stroke-width="7" />
<polyline points="1519,2358 1481,2383 " stroke="rgb(0, 0 ,0 )" stroke-opacity="1.00000" stroke-width="7" />
<polyline points="1481,2383 1519,2408 " stroke="rgb(0, 0 ,0 )" stroke-opacity="1.00000" stroke-width="7" />
<polyline points="1723,2307 1761,2332 " stroke="rgb(0, 0 ,0 )" stroke-opacity="1.00000" stroke-width="7" />
<polyline points="1761,2332 1723,2359 " stroke="rgb(0, 0 ,0 )" stroke-opacity="1.00000" stroke-width="7" />
<polyline points="1519,2358 1723,2307 " stroke="rgb(0, 0 ,0 )" stroke-opacity="1.00000" stroke-width="7" />
<polyline points="1519,2408 1723,2359 " stroke="rgb(0, 0 ,0 )" stroke-opacity="1.00000" stroke-width="7" />
<polyline points="1481,2383 1761,2332 " stroke="rgb(0, 0 ,0 )" stroke-opacity="1.00000" stroke-width="7" />
<polyline points="1519,2261 1703,2253 " stroke="rgb(0, 0 ,0 )" stroke-opacity="1.00000" stroke-width="7" />
<polyline points="1485,2284 1703,2253 " stroke="rgb(0, 0 ,0 )" stroke-opacity="1.00000" stroke-width="7" />
<polyline points="1519,2307 1703,2253 " stroke="rgb(0, 0 ,0 )" stroke-opacity="1.00000" stroke-width="7" />
<polyline points="1761,2435 1723,2462 " stroke="rgb(0, 0 ,0 )" stroke-opacity="1.00000" stroke-width="7" />
<polyline points="1519,2459 1723,2411 " stroke="rgb(0, 0 ,0 )" stroke-opacity="1.00000" stroke-width="7" />
<polyline points="1723,2411 1761,2435 " stroke="rgb(0, 0 ,0 )" stroke-opacity="1.00000" stroke-width="7" />
<polyline points="1723,2359 1723,2411 " stroke="rgb(0, 0 ,0 )" stroke-opacity="1.00000" stroke-width="7" />
<polyline points="1519,2407 1519,2458 " stroke="rgb(0, 0 ,0 )" stroke-opacity="1.00000" stroke-width="7" />
<polyline points="1519,2408 1519,2459 " stroke="rgb(0, 0 ,0 )" stroke-opacity="1.00000" stroke-width="7" />
<polyline points="1519,2459 1481,2486 " stroke="rgb(0, 0 ,0 )" stroke-opacity="1.00000" stroke-width="7" />
<polyline points="1481,2486 1519,2510 " stroke="rgb(0, 0 ,0 )" stroke-opacity="1.00000" stroke-width="7" />
<polyline points="1519,2510 1722,2462 " stroke="rgb(0, 0 ,0 )" stroke-opacity="1.00000" stroke-width="7" />
<polyline points="1519,2563 1481,2590 " stroke="rgb(0, 0 ,0 )" stroke-opacity="1.00000" stroke-width="7" />
<polyline points="1481,2590 1519,2613 " stroke="rgb(0, 0 ,0 )" stroke-opacity="1.00000" stroke-width="7" />
<polyline points="1761,2539 1722,2566 " stroke="rgb(0, 0 ,0 )" stroke-opacity="1.00000" stroke-width="7" />
<polyline points="1519,2563 1722,2515 " stroke="rgb(0, 0 ,0 )" stroke-opacity="1.00000" stroke-width="7" />
<polyline points="1519,2613 1722,2566 " stroke="rgb(0, 0 ,0 )" stroke-opacity="1.00000" stroke-width="7" />
<polyline points="1481,2590 1761,2539 " stroke="rgb(0, 0 ,0 )" stroke-opacity="1.00000" stroke-width="7" />
<polyline points="1722,2515 1761,2539 " stroke="rgb(0, 0 ,0 )" stroke-opacity="1.00000" stroke-width="7" />
<polyline points="1722,2462 1722,2515 " stroke="rgb(0, 0 ,0 )" stroke-opacity="1.00000" stroke-width="7" />
<polyline points="1519,2510 1519,2561 " stroke="rgb(0, 0 ,0 )" stroke-opacity="1.00000" stroke-width="7" />
<polyline points="1519,2512 1519,2563 " stroke="rgb(0, 0 ,0 )" stroke-opacity="1.00000" stroke-width="7" />
<polyline points="1481,2486 1761,2436 " stroke="rgb(0, 0 ,0 )" stroke-opacity="1.00000" stroke-width="7" />
<polyline points="1722,2980 1722,3032 " stroke="rgb(0, 0 ,0 )" stroke-opacity="1.00000" stroke-width="7" />
<polyline points="1519,3027 1519,3078 " stroke="rgb(0, 0 ,0 )" stroke-opacity="1.00000" stroke-width="7" />
<polyline points="1519,3029 1519,3080 " stroke="rgb(0, 0 ,0 )" stroke-opacity="1.00000" stroke-width="7" />
<polyline points="1621,2018 1621,2104 " stroke="rgb(0, 0 ,0 )" stroke-opacity="1.00000" stroke-width="4" />
<circle cx="1621" cy="2128" r="1" stroke="rgb(0, 0 ,0 )" stroke-opacity="1.00000" stroke-width="4" />
<polyline points="1621,2152 1621,2249 " stroke="rgb(0, 0 ,0 )" stroke-opacity="1.00000" stroke-width="4" />
<circle cx="1621" cy="2273" r="1" stroke="rgb(0, 0 ,0 )" stroke-opacity="1.00000" stroke-width="4" />
<polyline points="1621,2297 1621,2393 " stroke="rgb(0, 0 ,0 )" stroke-opacity="1.00000" stroke-width="4" />
<circle cx="1621" cy="2417" r="1" stroke="rgb(0, 0 ,0 )" stroke-opacity="1.00000" stroke-width="4" />
<polyline points="1621,2441 1621,2537 " stroke="rgb(0, 0 ,0 )" stroke-opacity="1.00000" stroke-width="4" />
<circle cx="1621" cy="2562" r="1" stroke="rgb(0, 0 ,0 )" stroke-opacity="1.00000" stroke-width="4" />
<polyline points="1621,2586 1621,2682 " stroke="rgb(0, 0 ,0 )" stroke-opacity="1.00000" stroke-width="4" />
<circle cx="1621" cy="2706" r="1" stroke="rgb(0, 0 ,0 )" stroke-opacity="1.00000" stroke-width="4" />
<polyline points="1621,2730 1621,2826 " stroke="rgb(0, 0 ,0 )" stroke-opacity="1.00000" stroke-width="4" />
<circle cx="1621" cy="2850" r="1" stroke="rgb(0, 0 ,0 )" stroke-opacity="1.00000" stroke-width="4" />
<polyline points="1621,2874 1621,2971 " stroke="rgb(0, 0 ,0 )" stroke-opacity="1.00000" stroke-width="4" />
<circle cx="1621" cy="2995" r="1" stroke="rgb(0, 0 ,0 )" stroke-opacity="1.00000" stroke-width="4" />
<polyline points="1621,3019 1621,3115 " stroke="rgb(0, 0 ,0 )" stroke-opacity="1.00000" stroke-width="4" />
<circle cx="1621" cy="3139" r="1" stroke="rgb(0, 0 ,0 )" stroke-opacity="1.00000" stroke-width="4" />
<polyline points="1621,3163 1621,3259 " stroke="rgb(0, 0 ,0 )" stroke-opacity="1.00000" stroke-width="4" />
<circle cx="1621" cy="3283" r="1" stroke="rgb(0, 0 ,0 )" stroke-opacity="1.00000" stroke-width="4" />
<polyline points="1621,3307 1621,3394 " stroke="rgb(0, 0 ,0 )" stroke-opacity="1.00000" stroke-width="4" />
<polyline points="1465,2797 1335,2797 " stroke="rgb(0, 0 ,0 )" stroke-opacity="1.00000" stroke-width="4" />
<polyline points="1465,2900 1335,2900 " stroke="rgb(0, 0 ,0 )" stroke-opacity="1.00000" stroke-width="4" />
<polyline points="1355,2757 1355,2717 " stroke="rgb(0, 0 ,0 )" stroke-opacity="1.00000" stroke-width="4" />
<polyline points="1355,2940 1355,2980 " stroke="rgb(0, 0 ,0 )" stroke-opacity="1.00000" stroke-width="4" />
<path d="M1348,2757 H1361 L1355,2797 L1348,2757 " fill="rgb(0, 0 ,0 )" stroke="rgb(0, 0 ,0 )" stroke-opacity="1.00000" />
<path d="M1361,2940 H1348 L1355,2900 L1361,2940 " fill="rgb(0, 0 ,0 )" stroke="rgb(0, 0 ,0 )" stroke-opacity="1.00000" />
<polyline points="1740,2199 1382,2199 " stroke="rgb(0, 0 ,0 )" stroke-opacity="1.00000" stroke-width="7" />
<path d="M1502,2199  A17,17 0 0,1 1519,2217 " stroke="rgb(0, 0 ,0 )" stroke-opacity="1.00000" stroke-width="7" stroke-opcacity="1" />
<polyline points="1519,2770 1481,2797 " stroke="rgb(0, 0 ,0 )" stroke-opacity="1.00000" stroke-width="7" />
<polyline points="1481,2797 1519,2821 " stroke="rgb(0, 0 ,0 )" stroke-opacity="1.00000" stroke-width="7" />
<polyline points="1761,2746 1722,2773 " stroke="rgb(0, 0 ,0 )" stroke-opacity="1.00000" stroke-width="7" />
<polyline points="1519,2770 1722,2723 " stroke="rgb(0, 0 ,0 )" stroke-opacity="1.00000" stroke-width="7" />
<polyline points="1519,2821 1722,2773 " stroke="rgb(0, 0 ,0 )" stroke-opacity="1.00000" stroke-width="7" />
<polyline points="1481,2797 1761,2746 " stroke="rgb(0, 0 ,0 )" stroke-opacity="1.00000" stroke-width="7" />
<polyline points="1722,2723 1761,2746 " stroke="rgb(0, 0 ,0 )" stroke-opacity="1.00000" stroke-width="7" />
<polyline points="1519,2874 1481,2900 " stroke="rgb(0, 0 ,0 )" stroke-opacity="1.00000" stroke-width="7" />
<polyline points="1481,2900 1519,2924 " stroke="rgb(0, 0 ,0 )" stroke-opacity="1.00000" stroke-width="7" />
<polyline points="1761,2850 1722,2876 " stroke="rgb(0, 0 ,0 )" stroke-opacity="1.00000" stroke-width="7" />
<polyline points="1519,2874 1722,2826 " stroke="rgb(0, 0 ,0 )" stroke-opacity="1.00000" stroke-width="7" />
<polyline points="1519,2924 1722,2876 " stroke="rgb(0, 0 ,0 )" stroke-opacity="1.00000" stroke-width="7" />
<polyline points="1481,2900 1761,2850 " stroke="rgb(0, 0 ,0 )" stroke-opacity="1.00000" stroke-width="7" />
<polyline points="1722,2826 1761,2850 " stroke="rgb(0, 0 ,0 )" stroke-opacity="1.00000" stroke-width="7" />
<polyline points="1722,2773 1722,2826 " stroke="rgb(0, 0 ,0 )" stroke-opacity="1.00000" stroke-width="7" />
<polyline points="1519,2821 1519,2872 " stroke="rgb(0, 0 ,0 )" stroke-opacity="1.00000" stroke-width="7" />
<polyline points="1519,2823 1519,2874 " stroke="rgb(0, 0 ,0 )" stroke-opacity="1.00000" stroke-width="7" />
<polyline points="1519,2977 1481,3004 " stroke="rgb(0, 0 ,0 )" stroke-opacity="1.00000" stroke-width="7" />
<polyline points="1481,3004 1519,3027 " stroke="rgb(0, 0 ,0 )" stroke-opacity="1.00000" stroke-width="7" />
<polyline points="1761,2953 1722,2980 " stroke="rgb(0, 0 ,0 )" stroke-opacity="1.00000" stroke-width="7" />
<polyline points="1519,2977 1722,2929 " stroke="rgb(0, 0 ,0 )" stroke-opacity="1.00000" stroke-width="7" />
<polyline points="1519,3027 1722,2980 " stroke="rgb(0, 0 ,0 )" stroke-opacity="1.00000" stroke-width="7" />
<polyline points="1481,3004 1761,2953 " stroke="rgb(0, 0 ,0 )" stroke-opacity="1.00000" stroke-width="7" />
<polyline points="1722,2929 1761,2953 " stroke="rgb(0, 0 ,0 )" stroke-opacity="1.00000" stroke-width="7" />
<polyline points="1722,2876 1722,2929 " stroke="rgb(0, 0 ,0 )" stroke-opacity="1.00000" stroke-width="7" />
<polyline points="1519,2924 1519,2975 " stroke="rgb(0, 0 ,0 )" stroke-opacity="1.00000" stroke-width="7" />
<polyline points="1519,2926 1519,2977 " stroke="rgb(0, 0 ,0 )" stroke-opacity="1.00000" stroke-width="7" />
<polyline points="1597,980 1597,874 " stroke="rgb(0, 0 ,0 )" stroke-opacity="1.00000" stroke-width="4" />
<polyline points="1661,980 1661,874 " stroke="rgb(0, 0 ,0 )" stroke-opacity="1.00000" stroke-width="4" />
<polyline points="1557,894 1517,894 " stroke="rgb(0, 0 ,0 )" stroke-opacity="1.00000" stroke-width="4" />
<polyline points="1701,894 1741,894 " stroke="rgb(0, 0 ,0 )" stroke-opacity="1.00000" stroke-width="4" />
<path d="M1557,901 V888 L1597,894 L1557,901 " fill="rgb(0, 0 ,0 )" stroke="rgb(0, 0 ,0 )" stroke-opacity="1.00000" />
<path d="M1701,888 V901 L1661,894 L1701,888 " fill="rgb(0, 0 ,0 )" stroke="rgb(0, 0 ,0 )" stroke-opacity="1.00000" />
<polyline points="1722,2566 1722,2618 " stroke="rgb(0, 0 ,0 )" stroke-opacity="1.00000" stroke-width="7" />
<polyline points="1519,2613 1519,2664 " stroke="rgb(0, 0 ,0 )" stroke-opacity="1.00000" stroke-width="7" />
<polyline points="1519,2615 1519,2666 " stroke="rgb(0, 0 ,0 )" stroke-opacity="1.00000" stroke-width="7" />
<polyline points="1519,2667 1481,2694 " stroke="rgb(0, 0 ,0 )" stroke-opacity="1.00000" stroke-width="7" />
<polyline points="1481,2694 1519,2718 " stroke="rgb(0, 0 ,0 )" stroke-opacity="1.00000" stroke-width="7" />
<polyline points="1761,2643 1722,2670 " stroke="rgb(0, 0 ,0 )" stroke-opacity="1.00000" stroke-width="7" />
<polyline points="1519,2667 1722,2619 " stroke="rgb(0, 0 ,0 )" stroke-opacity="1.00000" stroke-width="7" />
<polyline points="1519,2718 1722,2670 " stroke="rgb(0, 0 ,0 )" stroke-opacity="1.00000" stroke-width="7" />
<polyline points="1481,2694 1761,2643 " stroke="rgb(0, 0 ,0 )" stroke-opacity="1.00000" stroke-width="7" />
<polyline points="1722,2619 1761,2643 " stroke="rgb(0, 0 ,0 )" stroke-opacity="1.00000" stroke-width="7" />
<polyline points="1722,2670 1722,2723 " stroke="rgb(0, 0 ,0 )" stroke-opacity="1.00000" stroke-width="7" />
<polyline points="1519,2718 1519,2769 " stroke="rgb(0, 0 ,0 )" stroke-opacity="1.00000" stroke-width="7" />
<polyline points="1519,2720 1519,2770 " stroke="rgb(0, 0 ,0 )" stroke-opacity="1.00000" stroke-width="7" />
<polyline points="1722,3083 1708,3140 " stroke="rgb(0, 0 ,0 )" stroke-opacity="1.00000" stroke-width="7" />
<polyline points="1519,3080 1481,3107 " stroke="rgb(0, 0 ,0 )" stroke-opacity="1.00000" stroke-width="7" />
<polyline points="1481,3107 1519,3131 " stroke="rgb(0, 0 ,0 )" stroke-opacity="1.00000" stroke-width="7" />
<polyline points="1761,3056 1722,3083 " stroke="rgb(0, 0 ,0 )" stroke-opacity="1.00000" stroke-width="7" />
<polyline points="1519,3080 1722,3032 " stroke="rgb(0, 0 ,0 )" stroke-opacity="1.00000" stroke-width="7" />
<polyline points="1519,3131 1722,3083 " stroke="rgb(0, 0 ,0 )" stroke-opacity="1.00000" stroke-width="7" />
<polyline points="1481,3107 1761,3056 " stroke="rgb(0, 0 ,0 )" stroke-opacity="1.00000" stroke-width="7" />
<polyline points="1722,3032 1761,3056 " stroke="rgb(0, 0 ,0 )" stroke-opacity="1.00000" stroke-width="7" />
<polyline points="1708,3140 1744,3159 " stroke="rgb(0, 0 ,0 )" stroke-opacity="1.00000" stroke-width="7" />
<polyline points="1535,3179 1511,3202 " stroke="rgb(0, 0 ,0 )" stroke-opacity="1.00000" stroke-width="7" />
<polyline points="1511,3202 1551,3214 " stroke="rgb(0, 0 ,0 )" stroke-opacity="1.00000" stroke-width="7" />
<polyline points="1744,3159 1697,3188 " stroke="rgb(0, 0 ,0 )" stroke-opacity="1.00000" stroke-width="7" />
<polyline points="1535,3179 1708,3140 " stroke="rgb(0, 0 ,0 )" stroke-opacity="1.00000" stroke-width="7" />
<polyline points="1551,3214 1697,3188 " stroke="rgb(0, 0 ,0 )" stroke-opacity="1.00000" stroke-width="7" />
<polyline points="1511,3202 1744,3159 " stroke="rgb(0, 0 ,0 )" stroke-opacity="1.00000" stroke-width="7" />
<polyline points="1519,3131 1535,3179 " stroke="rgb(0, 0 ,0 )" stroke-opacity="1.00000" stroke-width="7" />
<polyline points="1551,3214 1614,3344 " stroke="rgb(0, 0 ,0 )" stroke-opacity="1.00000" stroke-width="7" />
<polyline points="1697,3188 1670,3248 " stroke="rgb(0, 0 ,0 )" stroke-opacity="1.00000" stroke-width="7" />
<polyline points="1664,3261 1627,3344 " stroke="rgb(0, 0 ,0 )" stroke-opacity="1.00000" stroke-width="7" />
<polyline points="1596,3270 1681,3252 " stroke="rgb(0, 0 ,0 )" stroke-opacity="1.00000" stroke-width="7" />
<polyline points="1596,3270 1664,3261 " stroke="rgb(0, 0 ,0 )" stroke-opacity="1.00000" stroke-width="7" />
<polyline points="1596,3270 1670,3248 " stroke="rgb(0, 0 ,0 )" stroke-opacity="1.00000" stroke-width="7" />
<polyline points="1670,3248 1681,3252 " stroke="rgb(0, 0 ,0 )" stroke-opacity="1.00000" stroke-width="7" />
<polyline points="1681,3252 1664,3261 " stroke="rgb(0, 0 ,0 )" stroke-opacity="1.00000" stroke-width="7" />
<path d="M1627,3344  A7,7 -205 0,1 1614,3344 " stroke="rgb(0, 0 ,0 )" stroke-opacity="1.00000" stroke-width="7" stroke-opcacity="1" />
<polyline points="1872,2199 2056,2199 " stroke="rgb(0, 0 ,0 )" stroke-opacity="1.00000" stroke-width="4" />
<polyline points="1629,3348 2056,3348 " stroke="rgb(0, 0 ,0 )" stroke-opacity="1.00000" stroke-width="4" />
<polyline points="2036,2240 2036,3308 " stroke="rgb(0, 0 ,0 )" stroke-opacity="1.00000" stroke-width="4" />
<path d="M2042,2240 H2029 L2036,2199 L2042,2240 " fill="rgb(0, 0 ,0 )" stroke="rgb(0, 0 ,0 )" stroke-opacity="1.00000" />
<path d="M2029,3308 H2042 L2036,3348 L2029,3308 " fill="rgb(0, 0 ,0 )" stroke="rgb(0, 0 ,0 )" stroke-opacity="1.00000" />
<polyline points="973,2376 1194,2376 " stroke="rgb(0, 0 ,0 )" stroke-opacity="1.00000" stroke-width="4" />
<polyline points="1194,2376 1302,2266 " stroke="rgb(0, 0 ,0 )" stroke-opacity="1.00000" stroke-width="4" />
<polyline points="1372,2199 1282,2199 " stroke="rgb(0, 0 ,0 )" stroke-opacity="1.00000" stroke-width="4" />
<polyline points="1611,2332 1282,2332 " stroke="rgb(0, 0 ,0 )" stroke-opacity="1.00000" stroke-width="4" />
<polyline points="1302,2240 1302,2292 " stroke="rgb(0, 0 ,0 )" stroke-opacity="1.00000" stroke-width="4" />
<path d="M1309,2240 H1296 L1302,2199 L1309,2240 " fill="rgb(0, 0 ,0 )" stroke="rgb(0, 0 ,0 )" stroke-opacity="1.00000" />
<path d="M1296,2292 H1309 L1302,2332 L1296,2292 " fill="rgb(0, 0 ,0 )" stroke="rgb(0, 0 ,0 )" stroke-opacity="1.00000" />
<polyline points="1427,2059 1205,2059 " stroke="rgb(0, 0 ,0 )" stroke-opacity="1.00000" stroke-width="4" />
<polyline points="1579,2126 1205,2126 " stroke="rgb(0, 0 ,0 )" stroke-opacity="1.00000" stroke-width="4" />
<polyline points="1225,2059 1225,2126 " stroke="rgb(0, 0 ,0 )" stroke-opacity="1.00000" stroke-width="4" />
<polyline points="1225,2019 1225,1979 " stroke="rgb(0, 0 ,0 )" stroke-opacity="1.00000" stroke-width="4" />
<polyline points="1225,2166 1225,2206 " stroke="rgb(0, 0 ,0 )" stroke-opacity="1.00000" stroke-width="4" />
<path d="M1219,2019 H1232 L1225,2059 L1219,2019 " fill="rgb(0, 0 ,0 )" stroke="rgb(0, 0 ,0 )" stroke-opacity="1.00000" />
<path d="M1232,2166 H1219 L1225,2126 L1232,2166 " fill="rgb(0, 0 ,0 )" stroke="rgb(0, 0 ,0 )" stroke-opacity="1.00000" />
<polyline points="1481,3117 1481,3652 " stroke="rgb(0, 0 ,0 )" stroke-opacity="1.00000" stroke-width="4" />
<polyline points="1761,3066 1761,3652 " stroke="rgb(0, 0 ,0 )" stroke-opacity="1.00000" stroke-width="4" />
<polyline points="1481,3632 991,3632 " stroke="rgb(0, 0 ,0 )" stroke-opacity="1.00000" stroke-width="4" />
<polyline points="1521,3632 1721,3632 " stroke="rgb(0, 0 ,0 )" stroke-opacity="1.00000" stroke-width="4" />
<path d="M1521,3626 V3639 L1481,3632 L1521,3626 " fill="rgb(0, 0 ,0 )" stroke="rgb(0, 0 ,0 )" stroke-opacity="1.00000" />
<path d="M1721,3639 V3626 L1761,3632 L1721,3639 " fill="rgb(0, 0 ,0 )" stroke="rgb(0, 0 ,0 )" stroke-opacity="1.00000" />
<polyline points="1519,3063 1519,3571 " stroke="rgb(0, 0 ,0 )" stroke-opacity="1.00000" stroke-width="4" />
<polyline points="1722,3042 1722,3571 " stroke="rgb(0, 0 ,0 )" stroke-opacity="1.00000" stroke-width="4" />
<polyline points="1722,3551 2160,3551 " stroke="rgb(0, 0 ,0 )" stroke-opacity="1.00000" stroke-width="4" />
<polyline points="1559,3551 1682,3551 " stroke="rgb(0, 0 ,0 )" stroke-opacity="1.00000" stroke-width="4" />
<path d="M1559,3545 V3558 L1519,3551 L1559,3545 " fill="rgb(0, 0 ,0 )" stroke="rgb(0, 0 ,0 )" stroke-opacity="1.00000" />
<path d="M1682,3558 V3545 L1722,3551 L1682,3558 " fill="rgb(0, 0 ,0 )" stroke="rgb(0, 0 ,0 )" stroke-opacity="1.00000" />
</svg>
